<svg width="287" height="210" viewBox="0 0 287 210" fill="none" xmlns="http://www.w3.org/2000/svg">
<path d="M205.504 44.4694C221.384 58.7577 227.242 86.6097 221.214 111.242C215.143 135.874 197.222 157.291 172.724 171.57C148.226 185.814 117.195 192.981 96.4723 181.789C75.7493 170.597 65.4392 141.13 60.2153 112.218C55.0357 83.3038 54.9517 54.9835 68.7499 41.1612C82.5481 27.3855 110.196 28.0635 136.978 28.7414C163.769 29.4613 189.667 30.1835 205.504 44.4694Z" fill="#F3F8FF"/>
<path d="M198.923 100.357V184.851C198.923 191.035 193.925 196.033 187.741 196.033H122.074C115.891 196.033 110.893 191.035 110.893 184.851V17.207C110.893 11.0235 115.891 6.02539 122.074 6.02539H187.741C193.925 6.02539 198.923 11.0235 198.923 17.207V100.357Z" fill="white"/>
<path d="M182.763 199.569L168.243 179.458C168.243 179.458 160.064 168.158 154.928 167.96C154.888 170.924 155.086 192.181 155.994 199.549H182.763V199.569Z" fill="#24B68A"/>
<path d="M136.061 1.60022H173.755C175.473 1.60022 176.856 2.9831 176.856 4.70182V9.46287C176.856 11.1816 175.473 12.5645 173.755 12.5645H136.061C134.342 12.5645 132.96 11.1816 132.96 9.46287V4.70182C132.96 3.00285 134.342 1.60022 136.061 1.60022Z" fill="#F3F3F3"/>
<path d="M196.236 196.349H198.923V163.634L176.283 159.88L154.908 167.98C155.915 170.272 161.23 185.483 172.628 198.799H196.216V196.349H196.236Z" fill="#2CD4A2"/>
<path d="M148.606 116.103C146.769 116.063 146.769 118.888 146.769 118.888C145.88 116.241 126.48 67.9785 126.48 67.9785C126.48 67.9785 122.469 69.6775 127.092 78.8045C125.591 79.6935 121.422 83.0321 123.141 88.4056C124.445 92.4357 127.29 93.8581 129.068 93.8581C128.771 96.8807 135.231 127.758 136.081 129.24C138.056 132.737 141.869 136.55 144.121 136.648C147.717 136.826 156.567 132.105 158.76 129.635C160.953 127.166 152.063 116.162 148.606 116.103Z" fill="#FFD29C"/>
<path d="M175.315 99.0735C166.564 91.2701 145.208 109.959 145.623 113.199C146.038 116.439 157.535 128.153 160.913 127.166C164.292 126.178 182.21 105.198 175.315 99.0735Z" fill="#F3CD4D"/>
<path d="M198.923 100.357C195.031 94.0555 189.322 89.9858 181.143 89.9858C152.755 89.9858 151.945 163.871 154.908 167.98C157.535 171.615 188.848 172.563 198.923 170.054" fill="#DCB01F"/>
<path d="M198.923 127.324L195.94 128.549C196.197 129.497 197.342 134.811 198.923 140.678" fill="#FFD29C"/>
<path d="M198.923 99.7058C196.947 98.2439 194.932 97.6513 193.075 98.4217C182.368 102.886 189.993 129.734 193.075 130.722C194.063 131.038 196.315 130.722 198.923 130.03" fill="#F3CD4D"/>
<path d="M186.595 96.4657C186.595 98.8166 173.577 99.3303 173.577 96.4657V80.4639H186.595V96.4657Z" fill="#FFD29C"/>
<path d="M189.312 78.0044C192.551 69.8635 190.27 61.3118 184.218 58.9037C178.165 56.4957 170.633 61.143 167.394 69.284C164.155 77.4249 166.436 85.9766 172.488 88.3846C178.541 90.7927 186.073 86.1454 189.312 78.0044Z" fill="#FFD29C"/>
<path d="M190.648 80.7216C191.849 79.0451 191.873 77.0062 190.702 76.1676C189.532 75.329 187.609 76.0082 186.408 77.6847C185.207 79.3612 185.183 81.4001 186.354 82.2387C187.525 83.0773 189.448 82.3981 190.648 80.7216Z" fill="#FFD29C"/>
<path d="M199.476 71.6924C199.476 69.5193 197.441 67.1289 197.066 64.4026C196.868 63.0197 197.303 57.2709 195.683 55.3151C192.325 51.285 190.349 52.1148 187.781 51.1665C183.316 49.5268 181.597 46.8203 177.903 46.8203C173.715 46.8203 172.016 48.9934 169.013 48.9934C165.576 48.9934 162.771 47.413 157.95 47.413C155.382 47.413 152.024 50.7714 152.024 53.7347C152.024 60.7479 158.543 59.7404 158.543 61.4393C158.543 62.6246 158.148 63.5729 158.148 65.1928C158.148 67.3264 160.913 68.5513 162.494 68.5513C167.314 68.5513 167.946 67.9586 167.946 67.9586C168.895 66.0423 170.12 64.2841 171.581 62.7234C171.779 62.5259 174.9 64.7187 179.997 64.8965C184.185 65.0348 187.129 65.8448 187.129 67.8006C187.129 69.1834 186.615 73.2728 186.655 74.4186C186.694 75.5644 187.089 76.3151 187.346 76.3151C187.603 76.3151 187.741 75.9398 189.361 75.9398C191.08 75.9398 191.218 78.0536 191.515 78.0536C193.253 78.0536 199.476 76.651 199.476 71.6924Z" fill="#FD8369"/>
<path d="M121.501 45.5955H131.359C134.283 45.5955 136.654 47.9661 136.654 50.8899V60.7479C136.654 63.6717 134.283 66.0423 131.359 66.0423H121.501C118.578 66.0423 116.207 63.6717 116.207 60.7479V50.8899C116.207 47.9661 118.578 45.5955 121.501 45.5955Z" fill="#EAF2FE"/>
<path d="M134.204 51.4232C136.517 51.4232 138.392 49.5481 138.392 47.235C138.392 44.922 136.517 43.0469 134.204 43.0469C131.891 43.0469 130.016 44.922 130.016 47.235C130.016 49.5481 131.891 51.4232 134.204 51.4232Z" fill="#2CD4A2"/>
<path d="M188.097 0H121.738C112.809 0 105.559 7.25023 105.559 16.1797V185.839C105.559 194.769 112.809 202.019 121.738 202.019H188.097C197.026 202.019 204.276 194.769 204.276 185.839V16.1797C204.276 7.25023 197.026 0 188.097 0ZM198.923 100.357V184.851C198.923 191.035 193.925 196.033 187.741 196.033H122.074C115.891 196.033 110.893 191.035 110.893 184.851V17.207C110.893 11.0235 115.891 6.0254 122.074 6.0254H187.741C193.925 6.0254 198.923 11.0235 198.923 17.207V100.357Z" fill="#F3F3F3"/>
<path d="M198.37 25.1091H222.333C226.66 25.1091 230.176 28.6256 230.176 32.952C230.176 37.2785 226.66 40.7949 222.333 40.7949H198.37C194.043 40.7949 190.527 37.2785 190.527 32.952C190.527 28.6058 194.043 25.1091 198.37 25.1091Z" fill="#2CD4A2"/>
<path d="M199.851 37.1403L193.056 30.3247V43.9559L199.851 37.1403Z" fill="#2CD4A2"/>
<path d="M202.261 35.1845C203.352 35.1845 204.237 34.3 204.237 33.2089C204.237 32.1179 203.352 31.2334 202.261 31.2334C201.17 31.2334 200.286 32.1179 200.286 33.2089C200.286 34.3 201.17 35.1845 202.261 35.1845Z" fill="#FED385"/>
<path d="M210.361 35.1845C211.452 35.1845 212.337 34.3 212.337 33.2089C212.337 32.1179 211.452 31.2334 210.361 31.2334C209.27 31.2334 208.386 32.1179 208.386 33.2089C208.386 34.3 209.27 35.1845 210.361 35.1845Z" fill="#FED385"/>
<path d="M218.441 35.1845C219.532 35.1845 220.417 34.3 220.417 33.2089C220.417 32.1179 219.532 31.2334 218.441 31.2334C217.35 31.2334 216.466 32.1179 216.466 33.2089C216.466 34.3 217.35 35.1845 218.441 35.1845Z" fill="#FED385"/>
<path d="M91.1966 184.377C94.1402 183.113 96.4318 181.157 96.4318 175.527C96.4318 149.153 65.2183 156.265 65.2183 134.356" stroke="#24B68A" stroke-miterlimit="10" stroke-linecap="round"/>
<path d="M70.7103 134.218C72.4093 136.431 66.7395 138.94 65.9295 137.893C65.1195 136.846 68.9126 131.867 70.7103 134.218Z" fill="#2CD4A2"/>
<path d="M98.3679 95.458C100.422 98.1447 94.3378 100.594 93.35 99.3103C92.3622 98.0262 96.1553 92.5737 98.3679 95.458Z" fill="#2CD4A2"/>
<path d="M96.7084 106.561C98.3481 109.524 90.3867 111.914 89.5965 110.492C88.8062 109.07 94.9699 103.38 96.7084 106.561Z" fill="#2CD4A2"/>
<path d="M97.1825 114.996C99.3359 117.604 91.9276 121.397 90.9003 120.152C89.873 118.908 94.8909 112.191 97.1825 114.996Z" fill="#2CD4A2"/>
<path d="M99.7112 124.459C101.865 127.067 94.4563 130.86 93.429 129.615C92.4017 128.371 97.4196 121.673 99.7112 124.459Z" fill="#2CD4A2"/>
<path d="M101.924 133.29C103.88 135.661 97.3998 138.9 96.4713 137.755C95.5428 136.609 99.8297 130.741 101.924 133.29Z" fill="#2CD4A2"/>
<path d="M104.887 142.95C106.843 145.321 100.363 148.561 99.4347 147.415C98.5062 146.269 102.793 140.402 104.887 142.95Z" fill="#2CD4A2"/>
<path d="M59.9633 132.48C60.6745 129.793 66.1467 132.717 65.8109 134.021C65.4751 135.325 59.2126 135.364 59.9633 132.48Z" fill="#2CD4A2"/>
<path d="M59.8645 141.943C59.5089 139.197 65.6923 139.868 65.8504 141.192C66.0084 142.516 60.2399 144.906 59.8645 141.943Z" fill="#2CD4A2"/>
<path d="M65.317 150.536C63.5193 148.422 69.0508 145.597 69.92 146.605C70.7893 147.612 67.253 152.788 65.317 150.536Z" fill="#2CD4A2"/>
<path d="M72.1721 155.179C71.0856 152.63 77.2098 151.603 77.7234 152.828C78.237 154.053 73.3179 157.905 72.1721 155.179Z" fill="#2CD4A2"/>
<path d="M81.3584 159.999C80.2719 157.451 86.396 156.423 86.9097 157.648C87.4233 158.873 82.524 162.725 81.3584 159.999Z" fill="#2CD4A2"/>
<path d="M88.253 166.992C88.016 164.227 94.1599 165.155 94.2784 166.479C94.397 167.802 88.5098 169.956 88.253 166.992Z" fill="#2CD4A2"/>
<path d="M73.6933 140.165C75.8664 141.903 70.967 145.716 69.92 144.886C68.8729 144.057 71.3621 138.288 73.6933 140.165Z" fill="#2CD4A2"/>
<path d="M78.6124 145.103C81.0028 146.526 76.6962 150.971 75.5504 150.299C74.4045 149.627 76.064 143.602 78.6124 145.103Z" fill="#2CD4A2"/>
<path d="M87.6407 149.963C89.8928 151.583 85.1713 155.633 84.0847 154.843C82.9982 154.053 85.2305 148.225 87.6407 149.963Z" fill="#2CD4A2"/>
<path d="M91.7499 185.405C91.7499 184.279 101.331 173.769 101.331 160.71C101.331 139.414 89.4385 128.746 89.4385 113.535C89.4385 110.65 89.6953 101.602 94.2786 97.9277" stroke="#24B68A" stroke-miterlimit="10" stroke-linecap="round"/>
<path d="M104.769 209.881H87.3048C86.4948 209.881 85.7639 209.368 85.5071 208.578L76.8147 182.244C76.4986 181.256 77.032 180.189 78.0198 179.853C78.2173 179.794 78.4149 179.754 78.6124 179.754H113.54C114.587 179.754 115.437 180.604 115.437 181.651C115.437 181.848 115.397 182.046 115.338 182.244L106.566 208.578C106.29 209.368 105.579 209.881 104.769 209.881Z" fill="#FD8369"/>
<path d="M107.692 154.033C108.72 156.937 101.529 157.766 101.055 156.384C100.58 155.001 106.606 150.911 107.692 154.033Z" fill="#2CD4A2"/>
<path d="M95.9576 158.3C98.2294 156.246 101.785 162.548 100.679 163.535C99.5728 164.523 93.5079 160.513 95.9576 158.3Z" fill="#2CD4A2"/>
<path d="M94.1205 150.437C95.6219 147.77 100.976 152.63 100.264 153.895C99.5532 155.159 92.5005 153.302 94.1205 150.437Z" fill="#2CD4A2"/>
<path d="M92.4017 141.113C93.9031 138.446 99.2568 143.306 98.5457 144.57C97.8345 145.834 90.7818 143.977 92.4017 141.113Z" fill="#2CD4A2"/>
<path d="M89.3396 133.705C90.3274 130.781 96.4911 134.554 96.017 135.957C95.5428 137.359 88.2729 136.806 89.3396 133.705Z" fill="#2CD4A2"/>
<path d="M84.9935 123.471C86.4356 120.745 91.9078 125.467 91.2164 126.771C90.525 128.074 83.4723 126.395 84.9935 123.471Z" fill="#2CD4A2"/>
<path d="M82.9586 112.092C84.6378 109.524 89.6754 114.72 88.8655 115.944C88.0555 117.169 81.1609 114.858 82.9586 112.092Z" fill="#2CD4A2"/>
<path d="M83.9662 102.294C85.6454 99.7254 90.683 104.921 89.873 106.146C89.0631 107.371 82.1684 105.059 83.9662 102.294Z" fill="#2CD4A2"/>
<path d="M107.692 164.108C108.72 167.012 101.529 167.842 101.055 166.459C100.58 165.076 106.606 161.007 107.692 164.108Z" fill="#2CD4A2"/>
</svg>
