<svg id="visual" viewBox="0 0 900 600" width="900" height="600" xmlns="http://www.w3.org/2000/svg" xmlns:xlink="http://www.w3.org/1999/xlink" version="1.1"><g transform="translate(885.5802466016041 16.084312450715316)"><path d="M210.2 -389.3C245.4 -343.8 228.4 -232.9 232.8 -157.1C237.2 -81.3 263.1 -40.7 298.3 20.3C333.5 81.3 378.1 162.7 367.7 228.1C357.2 293.4 291.9 342.9 221.4 367.5C151 392.2 75.5 392.1 19.2 358.9C-37.2 325.7 -74.3 259.4 -129.3 225.8C-184.3 192.2 -257.1 191.4 -299.2 159.2C-341.3 127 -352.7 63.5 -326.1 15.3C-299.5 -32.8 -235 -65.6 -208.2 -124.2C-181.3 -182.8 -192.2 -267.2 -163.8 -316.6C-135.3 -366.1 -67.7 -380.5 9.9 -397.7C87.5 -414.9 175 -434.8 210.2 -389.3" fill="#3F80FD"></path></g></svg>